#!OML:ASF I:\Random Stuff\random\construction\7_22_03\Session 2\subj1.ASF
:FULLY-SPECIFIED
:DEGREES
836
root -9.50198 17.7197 -6.16793 -185.802 102.705 -201.424
lowerback 9.47159 0.438512 -3.40387
upperback 2.84991 0.29231 -2.37772
thorax -2.35135 0.194096 -0.581549
lowerneck -12.7162 3.01622 4.22793
upperneck 44.6741 6.77913 -1.25803
head 19.6476 3.79701 0.138293
rclavicle 3.65764e-014 -4.77083e-015
rhumerus -42.4461 35.6757 -97.5537
rradius 77.9223
rwrist -14.0797
rhand -40.8593 36.8651
rfingers 7.12502
rthumb -13.796 7.34256
lclavicle 3.65764e-014 -4.77083e-015
lhumerus -0.248307 -29.4495 80.824
lradius 40.2897
lwrist -13.7309
lhand -22.9731 53.8094
lfingers 7.12502
lthumb 3.46906 83.761
rfemur -14.8391 7.20862 14.534
rtibia 5.84427e-014
rfoot 1.38098 -10.1643
rtoes -22.3953
lfemur -27.427 -1.36769 -10.2111
ltibia 27.3347
lfoot -14.8883 10.4015
ltoes -28.7744
837
root -9.47957 17.7193 -6.15967 -185.484 102.81 -200.904
lowerback 9.32553 0.410259 -3.4183
upperback 2.7405 0.253481 -2.32441
thorax -2.38407 0.173741 -0.513186
lowerneck -13.001 2.91105 4.15017
upperneck 44.7759 6.59635 -1.21274
head 19.7839 3.71441 0.150534
rclavicle 0 3.18055e-014
rhumerus -42.707 35.5609 -97.4131
rradius 77.2377
rwrist -14.6421
rhand -40.4841 36.4658
rfingers 7.12502
rthumb -13.4344 6.91901
lclavicle 0 3.18055e-014
lhumerus -0.637539 -29.3597 81.044
lradius 39.8282
lwrist -13.7693
lhand -23.1029 53.8877
lfingers 7.12502
lthumb 3.34373 83.8412
rfemur -14.5553 7.35528 14.478
rtibia 2.36554e-014
rfoot 1.31992 -10.1901
rtoes -22.3389
lfemur -26.9972 -1.34479 -10.3075
ltibia 27.1748
lfoot -14.4965 10.5331
ltoes -31.4696
838
root -9.45748 17.7201 -6.15118 -185.26 102.873 -200.542
lowerback 9.11096 0.297202 -3.49941
upperback 2.60162 0.0992262 -2.17791
thorax -2.40743 0.0953375 -0.297947
lowerneck -13.1928 2.83839 4.04078
upperneck 44.8321 6.51395 -1.2647
head 19.8725 3.6528 0.13536
rclavicle -2.38542e-015 -7.95139e-015
rhumerus -42.9646 35.837 -97.3102
rradius 76.3732
rwrist -15.1958
rhand -40.5707 36.0981
rfingers 7.12502
rthumb -13.5179 6.55685
lclavicle -2.38542e-015 -7.95139e-015
lhumerus -1.0755 -29.1306 81.2487
lradius 39.3694
lwrist -13.6148
lhand -23.3702 53.6765
lfingers 7.12502
lthumb 3.08559 83.634
rfemur -14.3204 7.4524 14.4477
rtibia -3.97569e-016
rfoot 1.24446 -10.2046
rtoes -22.158
lfemur -26.6427 -1.34235 -10.3648
ltibia 27.0091
lfoot -14.5629 10.5507
ltoes -31.1817
839
root -9.43325 17.722 -6.14419 -184.983 102.802 -200.112
lowerback 8.87203 0.137724 -3.53787
upperback 2.49267 -0.109254 -2.04171
thorax -2.38364 -0.0102267 -0.112034
lowerneck -13.4351 2.74276 3.81987
upperneck 44.8931 6.34362 -1.13709
head 19.9576 3.56011 0.212561
rclavicle -6.36111e-015 1.59028e-014
rhumerus -43.112 36.1642 -97.1978
rradius 75.2876
rwrist -15.7396
rhand -40.8018 35.8199
rfingers 7.12502
rthumb -13.7406 6.29358
lclavicle -6.36111e-015 1.59028e-014
lhumerus -1.48135 -28.9525 81.4049
lradius 38.9801
lwrist -13.3733
lhand -23.429 53.4771
lfingers 7.12502
lthumb 3.02883 83.4353
rfemur -14.047 7.41323 14.3793
rtibia 1.39149e-014
rfoot 1.14694 -10.2166
rtoes -22.0059
lfemur -26.3168 -1.5192 -10.458
ltibia 26.8477
lfoot -14.6112 10.6013
ltoes -30.6725
840
root -9.40811 17.7222 -6.1353 -184.94 102.704 -199.892
lowerback 8.65289 -0.0154086 -3.46393
upperback 2.37758 -0.301325 -1.92132
thorax -2.377 -0.107615 -0.00843894
lowerneck -13.696 2.62064 3.61327
upperneck 45.0014 6.1125 -0.956532
head 20.0776 3.45467 0.303588
rclavicle 1.43125e-014 6.36111e-015
rhumerus -43.1966 36.4767 -97.0482
rradius 74.0519
rwrist -16.3199
rhand -41.0538 35.9817
rfingers 7.12502
rthumb -13.9835 6.472
lclavicle 1.43125e-014 6.36111e-015
lhumerus -1.91645 -28.7701 81.5942
lradius 38.5561
lwrist -13.3459
lhand -23.339 53.3694
lfingers 7.12502
lthumb 3.11571 83.3263
rfemur -13.7398 7.34923 14.3703
rtibia -1.74931e-014
rfoot 1.02901 -10.2374
rtoes -21.8532
lfemur -25.9669 -1.75205 -10.4951
ltibia 26.6741
lfoot -15.2142 10.6462
ltoes -28.201
841
root -9.38477 17.7209 -6.11931 -184.888 102.826 -199.687
lowerback 8.3551 -0.06915 -3.41008
upperback 2.27962 -0.359329 -1.80669
thorax -2.31178 -0.139233 0.0855373
lowerneck -14.0035 2.50589 3.59143
upperneck 45.1231 5.89289 -0.912816
head 20.2425 3.367 0.297506
rclavicle 2.14687e-014 -1.27222e-014
rhumerus -43.1113 36.7006 -96.8106
rradius 72.7548
rwrist -16.9658
rhand -41.1099 35.0457
rfingers 7.12502
rthumb -14.0375 5.53972
lclavicle 2.14687e-014 -1.27222e-014
lhumerus -2.21101 -28.618 81.7475
lradius 37.9363
lwrist -13.4526
lhand -23.2572 53.2078
lfingers 7.12502
lthumb 3.19469 83.1636
rfemur -13.5204 7.5116 14.4104
rtibia 1.98785e-015
rfoot 0.959852 -10.2705
rtoes -21.7359
lfemur -25.5666 -1.80258 -10.463
ltibia 26.4772
lfoot -15.2538 10.8112
ltoes -28.2244
842
root -9.36115 17.7198 -6.10207 -184.409 102.995 -199.015
lowerback 8.06583 -0.0980236 -3.40037
upperback 2.22636 -0.386508 -1.74033
thorax -2.20546 -0.1554 0.150764
lowerneck -14.3699 2.411 3.57169
upperneck 45.1888 5.66037 -0.817114
head 20.3839 3.27888 0.313547
rclavicle -1.19271e-014 -3.97569e-014
rhumerus -42.9008 36.7609 -96.5258
rradius 71.5649
rwrist -17.5842
rhand -41.4662 34.4132
rfingers 7.12502
rthumb -14.3809 4.93138
lclavicle -1.19271e-014 -3.97569e-014
lhumerus -2.35324 -28.5145 81.8197
lradius 37.2228
lwrist -13.4225
lhand -23.3669 53.0583
lfingers 7.12502
lthumb 3.08876 83.0157
rfemur -14.2537 7.74754 14.3882
rtibia 1.9211
rfoot -0.0175336 -10.5697
rtoes -21.4783
lfemur -25.0811 -1.85308 -10.533
ltibia 26.2538
lfoot -15.3426 10.9975
ltoes -28.0846
